/* XPM */
static char *_644052717840[] = {
/* columns rows colors chars-per-pixel */
"50 50 188 2 ",
"   c #060C03",
".  c #090E00",
"X  c #090F0F",
"o  c #061404",
"O  c #0B1604",
"+  c #0E1A04",
"@  c #05150D",
"#  c #0B130C",
"$  c #0C1A0C",
"%  c #141502",
"&  c #191607",
"*  c #131B03",
"=  c #1B1C03",
"-  c #12160B",
";  c #19160D",
":  c #141C0C",
">  c #1A1D0D",
",  c #041312",
"<  c #0B1514",
"1  c #0E1B14",
"2  c #04161C",
"3  c #0C1619",
"4  c #04191B",
"5  c #0D1A19",
"6  c #131613",
"7  c #141C14",
"8  c #1A1E13",
"9  c #141C1A",
"0  c #1A1D1A",
"q  c #231B01",
"w  c #2A1E03",
"e  c #211F0A",
"r  c #0E200A",
"t  c #152106",
"y  c #1D2204",
"u  c #15210C",
"i  c #1C230C",
"p  c #1D280C",
"a  c #142214",
"s  c #1C2313",
"d  c #152815",
"f  c #1E2914",
"g  c #152319",
"h  c #1C231B",
"j  c #1C2A1B",
"k  c #1D301C",
"l  c #232404",
"z  c #2A2401",
"x  c #252B04",
"c  c #2C2C03",
"v  c #22250C",
"b  c #29260B",
"n  c #242B0C",
"m  c #2B2C0C",
"M  c #322D03",
"N  c #3B2D06",
"B  c #332D0C",
"V  c #253103",
"C  c #2E3304",
"Z  c #263109",
"A  c #2D320B",
"S  c #343303",
"D  c #3A3504",
"F  c #353904",
"G  c #3B3A04",
"H  c #34330B",
"J  c #3A350C",
"K  c #343A0C",
"L  c #3C3B0C",
"P  c #232513",
"I  c #2B2512",
"U  c #242B14",
"Y  c #2B2D14",
"T  c #21251B",
"R  c #2C261A",
"E  c #242B1A",
"W  c #2B2D1C",
"Q  c #332E12",
"!  c #382F12",
"~  c #312E1A",
"^  c #243115",
"/  c #2C3213",
"(  c #24331C",
")  c #2C331A",
"_  c #2E3B1F",
"`  c #343413",
"'  c #3A3512",
"]  c #353A14",
"[  c #3B3B13",
"{  c #33341A",
"}  c #39351B",
"|  c #353A1A",
" . c #3C3C1B",
".. c #1A1F22",
"X. c #162220",
"o. c #1A2224",
"O. c #1F2B22",
"+. c #212622",
"@. c #232822",
"#. c #2C2E23",
"$. c #263120",
"%. c #2A3221",
"&. c #373622",
"*. c #333922",
"=. c #3C3C22",
"-. c #3E3D29",
";. c #433706",
":. c #423C04",
">. c #423609",
",. c #483608",
"<. c #423D0B",
"1. c #4A3D0B",
"2. c #433613",
"3. c #423D13",
"4. c #4C3E14",
"5. c #40361B",
"6. c #423D1B",
"7. c #493F1B",
"8. c #443D23",
"9. c #3D4006",
"0. c #3E430B",
"q. c #3C4215",
"w. c #3E4816",
"e. c #37431F",
"r. c #3D411B",
"t. c #374126",
"y. c #3E4321",
"u. c #444205",
"i. c #4B4405",
"p. c #494807",
"a. c #44420B",
"s. c #4A460D",
"d. c #4C4A0C",
"f. c #554D03",
"g. c #50460E",
"h. c #5A450E",
"j. c #534C0C",
"k. c #594E09",
"l. c #4F500A",
"z. c #525006",
"x. c #5E5105",
"c. c #55500C",
"v. c #59540E",
"b. c #444313",
"n. c #4A4513",
"m. c #414812",
"M. c #4C4A13",
"N. c #44431B",
"B. c #4A441A",
"V. c #454A19",
"C. c #4C4B1B",
"Z. c #534111",
"A. c #584117",
"S. c #524D14",
"D. c #5D4A14",
"F. c #52461D",
"G. c #5A471E",
"H. c #524D1C",
"J. c #584A1B",
"K. c #4E5011",
"L. c #545315",
"P. c #5A5214",
"I. c #575814",
"U. c #55531A",
"Y. c #5C541B",
"T. c #61530C",
"R. c #614C15",
"E. c #64521B",
"W. c #454222",
"Q. c #4C4721",
"!. c #4C4A22",
"~. c #47462A",
"^. c #544626",
"/. c #514C25",
"(. c #5C4D22",
"). c #4F562A",
"_. c #575123",
"`. c #5A5422",
"'. c #5F5029",
"]. c #5C5B25",
"[. c #6F5A25",
"{. c #625C29",
"}. c #6F5B29",
"|. c #715B21",
" X c #766328",
".X c #786429",
"XX c #676133",
"oX c #79663B",
/* pixels */
"Z [ / = % P 5.7.^.n.j.p.G K W.e./ ) ( U ( f p d ( k k d r $ 4 3 3 5 4 4 2 2 , ^ r.H.<.B.=.-.Y O $ $ ",
"] ] ]  .I & B 3.L 3.U.a.S H J ` Y U #.f s d f r k ( j $ o 1 9 1 # < , 4 4 4 $ U r.C.<.B Q ~ E t O u ",
"|  .` z z [ Q.3.M.d.M.S M  .H m Y > h h 9 : j h 4 , 3 7 d ^ ( $.E j r @ , @ $ Z N.C.4.B Q Y _ Z K m.",
"~ Y H 6.6.[ L :.d.L.L.D L 3.' J l > s s > s h h 3 3 3 g ^ / ^ U ( E d s a a p n b.n.n.' } Y | A L d.",
"R I H L J J G F p.I.M.G J L M.M.a.m.q.K v = - - 9 h h s p Y n l p f U U E Y Y ` B B B B Y v n n 0.M.",
"I b H L a.<.L <.d.d.G S J D L.d.K.a.a.V.K n Y E P T #.E U m / K K { / Z A ' 6.6.3.<.' ` Y { | r.B.n.",
"2.C.S.a.u.a.[ N.b.L J ' [ <.S.i.u.a.a.[ H ] } / { &.| =.| m m A A A S F <.B.Y.M.s.b.L K m ] [ N.b.a.",
"s.M.d.a.M.B.' [ b.S ' J <.M.I.z.a.p.K L [ ] B [ ` ` ` J ] ] ' m m Z S D a.s.P.u.:.a.m.J A ] [ ] [ b.",
"S.S.G n.V.L { m ` N.] J G p.v.i.u.L S H [ [ H H ` [ H A x m { } { ] L G 1.j.P.d.a.0.C q.] Z l H ] ] ",
"S.D.G c J H b Q ' N.3.L s.d.p.u.n.<.J S [ [ ] ' K H K m = l Q { } ] L <.d.j.z.u.9.9.C e.] K A * l l ",
"z.9.s.C.J z z m H H ` 3.C.b.S N. .B H K J A { ` ` H | { v Y | ] J 3.M.M.z.z.v.c.m.M.0.9.F 0.K A * y ",
"u.u.a.L [ H m Y ` H H ] r.' B ! } m H [ m m Y Y Y U U > - s (  .] [ a.:.L.d.I.L.F K A A 9.K ] ] | | ",
"D b.L [ ' m ' } ] r.K A ` |  .v Y e l  .n n v E T @.h # X X 1 ) r.[ L F 0.9.L K ` n /  .] ] e.| r.[ ",
"S H L C.} m | ' H J S ` ` Y =./ n v v / i P P E s h 9 < 9 3 @ T N.M.a.G 0.F A x U Y / v x Z / ] K L ",
"z [ C C  .=.` Q m c A { #.P Y ) P W ) Y P s s f P f u o @ 1 @ i q.s.9.F w.w.K p s #.) y A A x / / ] ",
"] [ L J ' ` Y !  .] ` m T T > : - E *.f E s s : Z q.e.p O O o p G p.u.F C V i > s 9 i > / / U n Z U ",
"J J J 6.5.B 5.! B Q Q n P - : $ 6 7 > p U > ) ] q.!.V.A t * n q.L.U.a.J y Z k O $ $ > U P E *.U P p ",
"' J J J N w ! ! ! B m Y f f f 7 # 9 > s s p { m A q.L J L K 0.V.U.G c q.w.Z ^ s E f : $ - s U * s s ",
"3.' ' J ! M B M B H B / p P f 7 s > : i > > ; & Q ' B <.U.I.d.m.a.S H q.r.e.t.p a f s s ; s Y P 8 8 ",
"J B H N 2.! L H M H ` | n f f f ) v U ) T R P P I ` 3.a.p.9.9.m.L J K H x n / u U E P E W U n i P T ",
"<.L [ J B M S 2.H m ` ] / p U ) { { { *.Y { { ` ' S M.p.u.0.C A m l ` ] i n / P E E s s ) ) n i > T ",
"S D J S J J 3.!.3.3.N. .| / ) *.| ) W ) ) Y Y ` ` ] U.d.9.0.l v v Y { { v ) U + > s f s p ) ^ U s T ",
"[ [ L J <.M G a.<.m.L ]  .Y i i s 6 # 0 @.- > P n [ m.F C A > - U > i U > i f i * u a > f ) f : 1 7 ",
"' N.3.N.b.F a.M.b.b.J K  .*.= . O - # 7 @.- $ % % y.w.x l = 8 h u % U U 8 6 f E u : : $ f ( h @ @ < ",
"J [ K L 3.D b.b.[ 3.[ m H  .m l y y v i T - - - * ] r.m = s 0 ; f ( t U s @.h E d d g 1 7 O.3 < < < ",
"[ L J J b.L b.L b.[ B H ` J H  .J K J m Y { #.v =  .!.J b P P ; U *.+ E h h T s $ g g g 7 o.3 3 7 9 ",
"[ ' H S L L <.b.L <.H H ' ` H M c S L N.! ` 8.N.H.M.<.J 6. .{ Y ( ) i 8 6 0 +.9 a g g g a a 7   % i ",
"[ B H S F G L B.<.3.J J M J 6.H G D D B.[ 6.[ b.s.s.s.n.[ B ` W.y > W P 0 0 0 9 1 g r a u s E = v ' ",
"L S S S c M S b.3.H z J B.C./.(.<.<.L B B H ' 3.L J ' ' ! ! ` Y n v Y ~ I > T 8 1 g g a : i ] H L S.",
"L S S D S F M J [ L z J XXXX].{.H.B.6.6.~. .] L b.L ! ! Q Y Y Q Y m I b = Y P 7 9 g g a > i ` 0.1.j.",
"K J <.0.G a.G S 3.B.7.>.J._.Y.{.B.6.&.W U l K w.[ Z m ) ) U m A c S [ M z /.Y 8 5 3 5 < 7 P ' B.1.i.",
"z J q.a.0.M.B.<./.2.<.M S <.s.L = = > > * v K C x y y U Y / { { !.b.H.a.d.M.' p 9 5 9 , 6 - Y B.S.i.",
"m 6.B.b.u.G :.D n.F.4.S M z D M v % = % y ` m x n = > P P Y / | y.H H c s.0.] =.$.O.1 $ $ o $ v b.<.",
"|  .N.a.9.F F L <.>.<.n.S.M.S.B.6. . .H c A c x l % & e I Q m z v n q.L C.J m { U 8 h 7 $ + . = <.<.",
"n ] K C C F S S H S L u.d.E.P.Y.S.S.M.M.d.M.U.B.J J ! ' } 6.J B e b ` m ' B n { P > v Y b ! ' N s.1.",
"y / ] C V K F C H J D M D D.j.j.d.u.u.:.u.M.U.M.`._.B.4.B.3.N z B } ` ! B Y w z b q q 2.'.G.A.4.,.u.",
"> U | [ K Z H m c J M M F j.j.:.:.a.G G G J B.a.a.M.a.G u.<.:.D J Q.W.W.6.6.2.>.;.,.D.E.R.R.1.h.i.j.",
": % m  .[ K ' J H J D M D 1.a.G C S C S c S [ K S 0.a.:.G G :.<.D b.' B B 7.F.G.D..X.X|.|.R.,.,.1.M.",
"> & B [ J n.(.7.4.2.3.L J J B J n m n U U m ` n Z A F D :.u.u.:.a.b.M b I 8.8.F.1.E.}.oX^.w ~ ~ m ' ",
"b n  .2.M >.(.(.G.2.4.J ' ] n ^ U U U U i U P v m m J L G L <.:.G L z b b &.8.F.Z.g.4.N w w I ; * i ",
"y ] [ S <.1.,.4.4.>.3.l ` { v U s s T 8 P T P s > ! 6.6.>.D D ;.>.N B b P Y ` K J G <.L b.H x A t + ",
"i ] r.[ b.L J J ! J M c l % = P s 9 s h 8 8 > P P P } W.^.4.;.;.N z B m m Y x C J m.3.c c L V.).K / ",
"a U ) | / Y Y Y m H H S z C l = : 7 a a # g 9 7 8 ; > e !  .B.3.! M B B H S S C L H b z l = x V.V.s.",
"g a a E f f E Y Y v c b.H.].U.!.) u O + o a 7 7 9 6 6 O % v m m v b x A F 9.9.J K m b b e l y A F F ",
"@.9 > f s f s i y n S C.L.d.j.b.r.n t + $ 1 5 5 3 < 3 9 @ # $ # # s n c S 9.:.L B ' W P = U U ] F F ",
"; 8 > f v i i n l ] H.S.d.G D c S A A u : 9 X.< 4 , , , , < 3 < 9 T n x F u.G S B v > s i > t n x c ",
"l A S C S M S 3.3.G g.p.d.u.S <.G M m I : 6 ..o.5 7 @ @ @ 1 5 < 8 T v Z [ q.[ A y + $ + u u > * A S ",
"s.U.P.d.Y.g.1.s.D.S.s.i.s.n.G J J ' } ~ ; T +.9 o.9 1 1 1 1 7 O.s ) m K K m A / u > p + u t U n C.M.",
"j.z.f.k.v.k.g.s.u.i.s.g.;.M z m m l v Y > ; 9 9 9 0 0 9 7 7 g s i / ] ` m / A ] / | / n n i y ] 0.G ",
"f.f.x.x.T.x.i.i.i.:.u.a.<.M l i Y v i U P P s 8 8 9 0 9 9 8 9 s i ) ` m b m n A H ] H m n n Z r.C.s."
};
