/* XPM */
static char *_644052736916[] = {
/* columns rows colors chars-per-pixel */
"50 50 120 2 ",
"   c #0F0E09",
".  c #0C0B06",
"X  c #110E07",
"o  c #100F0A",
"O  c #141106",
"+  c #191307",
"@  c #15130B",
"#  c #1A160D",
"$  c #1C180E",
"%  c #171611",
"&  c #1A1710",
"*  c #1D1B13",
"=  c #1E1D18",
"-  c #231B0F",
";  c #221E14",
":  c #2B1F11",
">  c #221F18",
",  c #29200F",
"<  c #242016",
"1  c #2A2215",
"2  c #25221A",
"3  c #2A251C",
"4  c #2D291E",
"5  c #332616",
"6  c #352817",
"7  c #30271A",
"8  c #332A1D",
"9  c #392D1E",
"0  c #272621",
"q  c #2A2720",
"w  c #2D2A22",
"e  c #2F2E29",
"r  c #322D24",
"t  c #3A2F21",
"y  c #322F28",
"u  c #353126",
"i  c #3B3224",
"p  c #35322A",
"a  c #3A352C",
"s  c #3D382E",
"d  c #373631",
"f  c #3A3731",
"g  c #3E3A32",
"h  c #413424",
"j  c #453827",
"k  c #483926",
"l  c #42362A",
"z  c #433A2D",
"x  c #4A3C2D",
"c  c #423D33",
"v  c #483F30",
"b  c #423F38",
"n  c #483F38",
"m  c #454036",
"M  c #4B4235",
"N  c #454239",
"B  c #4B453B",
"V  c #4E493D",
"C  c #524534",
"Z  c #5A4936",
"A  c #51463A",
"S  c #534A3D",
"D  c #5A4D3D",
"F  c #5D503E",
"G  c #604F3B",
"H  c #62513E",
"J  c #474641",
"K  c #4A4740",
"L  c #4E4A41",
"P  c #4E4D48",
"I  c #534D42",
"U  c #594E42",
"Y  c #565145",
"T  c #5B5245",
"R  c #565248",
"E  c #5C554B",
"W  c #5E594D",
"Q  c #5F5B50",
"!  c #625545",
"~  c #665947",
"^  c #6A5A47",
"/  c #61564A",
"(  c #635A4C",
")  c #6A5C4D",
"_  c #645E52",
"`  c #6A5F52",
"'  c #6A604E",
"]  c #72614D",
"[  c #676055",
"{  c #6D6353",
"}  c #656158",
"|  c #6E6559",
" . c #716455",
".. c #756A57",
"X. c #7A6A56",
"o. c #75675A",
"O. c #756B5C",
"+. c #7B6D5D",
"@. c #7B705F",
"#. c #6F6B62",
"$. c #7B6E60",
"%. c #7E7362",
"&. c #7D766A",
"*. c #806F5C",
"=. c #86745E",
"-. c #827565",
";. c #857867",
":. c #8A7965",
">. c #857768",
",. c #857B69",
"<. c #8B7F6F",
"1. c #89806F",
"2. c #90816E",
"3. c #8E8170",
"4. c #948574",
"5. c #958877",
"6. c #988871",
"7. c #968B79",
"8. c #A09080",
"9. c #BAAB96",
/* pixels */
"0 2 0 d e e = o p p e e % e b e 2 @ a N V V N d w = * @ 0 2 g W N a a g 3 m a N V 3 q 3 p a 2 < ; > ",
"% 2     % 0 % % * e N 2 2 m J g 2 p $ 2 w 4 p 0 = r N d 2 * e b m * u K Y q w N a q g g p I w w g q ",
"% 0 = % . = 2 = e u e * O 2 p J = w N 2 @ p = * $ p e p g g 0 % r 4 % N E + Y R < 4 w p r W V w 3 y ",
"= @ % 0 e = w d p * O w w 2 w p $ d g 3 s V p 3 3 * 2 * 3 e * b L m w g e g w g * a u u r s B r g 2 ",
"0 d g e w % o = = = = * w e L g 3 2 w * p V 3 w d f p * 2 d 0 @ p N f 4 2 Y L a N a 3 p V 8 8 4 y d ",
"% d d e e N 0 @ 0 2 = * * @ * p g r 2 4 < 2 ; < p g p w g g g f w * 4 a N 4 3 < R #.L 4 r 4 c B B y ",
"o % = d p g w d N g 2 2 2 3 $ * # 3 # p N a u < # 4 u # 2 p * s u 3 # a p p 3 a 3 u 8 M [ I i r y i ",
"e = @ @ * = O d g = * N g 0 p s r w w ; * = w O a N 3 u u e 4 < < N a 4 * * q V N u g 3 i s r _ R c ",
"p = * 0 @ = 0 w 2 3 p s p * g a s Y p = u r w 2 w a * w c L g w 3 p a q e m V e 3 > a i V I 7 a T A ",
"e = 4 p w s p d p * * w < * g g a V u 3 g w V u 3 g a w 4 < * V Y q 2 2 3 g V m 8 c i p M E z { E n ",
"# w g * @ p m g N 4 # = 3 * $ 3 a P p @ a 3 s p 4 g a g p 4 4 ; * q g I m u * 3 B v A Y a M u M z j ",
"O 2 e = = p d d p d 4 $ p g 0 = w s 3 # r p 4 < * u g g $ p [ R b 3 * d B g g s I I s 3 i I 1 M U c ",
"w = @ * p N g J N w 2 * c W V p B 4 # < < w a 2 4 c u s 1 u Y V p r y 2 w 2 y A v a n z s c z M T / ",
"g V g 0 * @ < p N < * # s V V B B = r a r 4 2 2 $ = 4 3 < m s Y d 2 I r 1 a a ; r > r A ) S E M 5 k ",
"N J d b g = * @ $ 4 u $ < p g V a @ a r p 4 < r 3 a a 4 < 1 u p > > b y p c r r c a l l i m E V A ' ",
"N J N N g @ 0 s p w g p $ * 3 p w O 3 r g s c 4 4 V B m B 3 w < > p r 2 c b l q I y A W u 8 6 9 C S ",
"f e g N 0 @ u d m s m N w w R s 2 2 * 3 4 3 r 4 * V T c s 8 A s g p < # g g y ; z p : / M U S z v r ",
"* # * * * * p g p m N P = w } N w B a = 4 2 @ 3 * 2 p p 4 ; I I B e 2 g 0 a p b b a y l 1 S ! A I 4 ",
"2 3 * @ 2 * @ 2 * 2 p p # w m g s c < 2 a N a d s * 4 $ r r > r g 3 L a 3 a p s n n n : 8 8 t t M 4 ",
"e p e q g p @ 3 < = , 2 < < p s N r # c g a N N p 2 E c c E i 1 3 ; r 4 p I E U r r z p l M 9 T >.W ",
"e e y a b d @ = m u a s w 2 2 * s r # N V w r V ; p / I M E A r g p s r < u 1 i 7 x S U M D A t l B ",
"@ @ * 2 4 3 * e p 3 4 = * m a a w = # u m s w V > f n c B L u 3 V N Y V a i B i t : h A o.O.$. .I z ",
"2 % & 2 = ; * p = 2 # = p m N m 3 3 u 2 = w 4 u 4 3 n L A I i w m < r m i T ' W /  .z 6 l F ) / / U ",
"g 2 2 b B e * 4 u $ u p N a m m < g N 4 ; 4 3 $ r i : r c n r 7 E M M B , S T ' -.>.o.C h 9 h j j h ",
"q = d c b B y 0 < 2 V N V w m N - = 4 * w m s s L L i > - r c : l E / I r v %.O. .X.-.>.U x  .) ) C ",
"2 * d g y d g r 2 2 m V L w V g 2 * a s s s B m B I > r M n a c c > p l l v %.,.-./ ~ >.) l ] :.4.8.",
"0 r b p 0 a b 0 2 $ * < < 3 P d O w N m 3 3 3 c V c ; 2 B A : B I l c l v i S 3.<.C U *.) x D x ! <.",
"2 o y g y d f > N w < < 3 @ $ w 3 2 w 3 $ 3 $ # a 3 z 1 > B B n 4 c U _ E I l z A j Z *.) h X.! h ^ ",
"> % > 2 y p w y g * w V m 3 3 m s m V u a 2 4 3 * r c 7 : p c z > A U _ _ #.n l i 9 : l C 6 ] +.:.:.",
"0 2 y > o w ; ; = 2 w m g s N m V V W R s 4 Y 3 I B I B > 7 3 - t n R I U U l ` / A / ) U h x D G x ",
"y c B b w f > > s w g g 4 2 r $ 4 s p m 1 a V < B I ( c a [ S m z r a t r p l E / A C ` Z h H H G G ",
"g J b f & b d > $ < a w < * 2 p w - - w $ a i $ w m I a z T V V I I c p z l r r 7 l r 9 h ) 6.<.:.<.",
"2 b f 1 = K N g e = = q a 2 > 3 f N a s * s m m 6 , a 3 3 4 i z w M 3 8 m F V s S S m m 9 C F ) O.>.",
"; > 4 * a N P P J 0 g N J y X e g w N B 2 N T m V W S z z a a r # u 8 p V F z i ..~ T @.Z k x l x z ",
"B p p * @ 2 p g d % w p N b 3 Y w 3 g u < - 4 m z T W S &.' S 3 s T Y i i m i 9 { ..F 7. .A $.$.D 6 ",
"L I I > P p & * 2 % = # ; 3 ; p u % 3 m m u 3 1 < p i 3 a s c a W V V u 5 m F i S M , F / x o.$.h 9 ",
"B I 4 3 R L p f a g a < ; r z c w a B Q W S S m 8 a a 1 9 u i 9 S M 8 8 S S M i 6 h x h 9 9 h x h Z ",
"B a ; p B w K Y N N V p $ p I V 4 E Y N S W W M F C 8 1 R F T i 1 7 8 8 5 , 6 , x D ) C ~ +.] x H *.",
"w 2 # w r 2 ; r r e m m < i V c - B V i m S T s Y m - z Y E T B u C T i m M Z ' C 6 h 5 x :.+.<.*.6.",
"r : c i 3 w * # < # 4 s * 7 I i 7 m V m p m V V Y - 5 S T A D T V M M , m M 9 6 t -.) ! x 9 h x ] ^ ",
"L s N u m g 3 w c N m $ 1 3 7 1 4 1 $ s z z F Q m u S Y ' M v F m 5 6 x ) { T M 5  .-. .k Z C ] X.] ",
"m m u s g V < = g m 4 g Y m a r m s 1 u m V V W 5 s S M z i i M 9 M E T B D U U 9 A h A C C T ..*.=.",
"m m p d N s @ s b # + s Y Y M S V V s ; 4 B s s u + 8 < 8 u , 8 5 , r M x A S ) T D 5 h D C h k Z H ",
"m s g w m m % N c # 4 m B M Y B v m V $ 8 m i a m v 4 , M i v 8 M M i 5 5 4 : M C t v h 9 k h 5 ' ~ ",
"p u V N p p * m p < V B M V W F V F N 1 V u * g V m m s 4 , T C W S T T c t t 8 M l +.=.~ ~ D ! ( k ",
"* $ # 2 g w = N u $ u u r s p Y m m s w S w u Q S m ' Q 3 m W W T m 1 i / _ L l S | %.' ! { +.5.,.~ ",
"2 e = % w = = p p < O w 4 ; + 4 3 < < < w < w m V Q V s , V Q ' ' W 1 8 U O.T 1 M S S m 8 1 M ..T F ",
"p * * w % < @ # r * + u p s 1 < < 3 < 3 2 3 < $ 3 1 u s , v Q Y B S < i i c c 1 9 A V t S F x h k ~ ",
"* @ e V N < w 2 < 4 p < * $ 2 d N V u $ s s w u u 4 8 V v , 3 u 8 , u a , i M D M , i i m ~ { 9 ' 9.",
"= * e d p 4 m p 4 m m p 2 * w m m m u * N L V V Y u 6 V V u u s p 4 m S x Y T E C i ~ ( i , V S H 6."
};
