/* XPM */
static char *_644052762665[] = {
/* columns rows colors chars-per-pixel */
"50 50 242 2 ",
"   c #040C0A",
".  c #120E08",
"X  c #01130D",
"o  c #0B140C",
"O  c #051A0D",
"+  c #0D1A0D",
"@  c #191304",
"#  c #1A1B06",
"$  c #12150C",
"%  c #141D0D",
"&  c #1B1D0C",
"*  c #131806",
"=  c #031414",
"-  c #0B1515",
";  c #051A15",
":  c #0C1B14",
">  c #03161A",
",  c #0C1619",
"<  c #051B1C",
"1  c #0C1A1B",
"2  c #1C1614",
"3  c #141C14",
"4  c #1A1D15",
"5  c #13161C",
"6  c #131C1B",
"7  c #1B1D1B",
"8  c #131612",
"9  c #070C12",
"0  c #241E05",
"q  c #231C18",
"w  c #14210D",
"e  c #1C230C",
"r  c #1D2809",
"t  c #0A2118",
"y  c #142214",
"u  c #1C2314",
"i  c #1D2915",
"p  c #15221A",
"a  c #1B221B",
"s  c #1C291B",
"d  c #112915",
"f  c #09220C",
"g  c #242505",
"h  c #242803",
"j  c #2C2B04",
"k  c #23240C",
"l  c #2A250C",
"z  c #242C0C",
"x  c #2B2D0D",
"c  c #2C2606",
"v  c #322E03",
"b  c #3B2E02",
"n  c #322E0B",
"m  c #32230C",
"M  c #2D3303",
"N  c #2E3A01",
"B  c #2D330C",
"V  c #263407",
"C  c #343404",
"Z  c #3B3404",
"A  c #353A05",
"S  c #3C3C03",
"D  c #34330C",
"F  c #3B350C",
"G  c #353A0B",
"H  c #3C3B0B",
"J  c #232513",
"K  c #292415",
"L  c #242A13",
"P  c #2B2C13",
"I  c #23251A",
"U  c #2B241B",
"Y  c #242B1B",
"T  c #2B2C1B",
"R  c #332D13",
"E  c #332E1B",
"W  c #342813",
"Q  c #2D3213",
"!  c #2C3A15",
"~  c #2D311A",
"^  c #263317",
"/  c #343313",
"(  c #3A3513",
")  c #333913",
"_  c #3C3B13",
"`  c #34341B",
"'  c #3B351B",
"]  c #36391A",
"[  c #3D3C1A",
"{  c #081921",
"}  c #141D22",
"|  c #181E26",
" . c #1A2422",
".. c #1C2A22",
"X. c #182627",
"o. c #0C2220",
"O. c #242422",
"+. c #232C23",
"@. c #2B2A23",
"#. c #2A2D2B",
"$. c #292425",
"%. c #322B29",
"&. c #2D3222",
"*. c #26302A",
"=. c #353424",
"-. c #3C3523",
";. c #3E3A21",
":. c #34352B",
">. c #38342B",
",. c #312D32",
"<. c #2A3533",
"1. c #3B3C35",
"2. c #383838",
"3. c #2E2F34",
"4. c #423D05",
"5. c #4A3D03",
"6. c #433D0C",
"7. c #4C3C0D",
"8. c #433408",
"9. c #432D19",
"0. c #423C14",
"q. c #4A3C13",
"w. c #423E1A",
"e. c #443618",
"r. c #523E19",
"t. c #453E23",
"y. c #423A37",
"u. c #3B4203",
"i. c #3E420C",
"p. c #3B460C",
"a. c #3D4213",
"s. c #3D421C",
"d. c #3E423B",
"f. c #444304",
"g. c #4A4503",
"h. c #4D4A03",
"j. c #44430B",
"k. c #4B430B",
"l. c #4C4B0E",
"z. c #454A04",
"x. c #534302",
"c. c #534B05",
"v. c #53430A",
"b. c #534C0B",
"n. c #5E4B0A",
"m. c #5B4706",
"M. c #545202",
"N. c #5B5204",
"B. c #585508",
"V. c #444212",
"C. c #4B4413",
"Z. c #4C4A12",
"A. c #4D4A1A",
"S. c #47441A",
"D. c #524513",
"F. c #534C12",
"G. c #52451A",
"H. c #584A18",
"J. c #585717",
"K. c #4C5006",
"L. c #68470B",
"P. c #615408",
"I. c #69541C",
"U. c #7D5419",
"Y. c #704B16",
"T. c #4A4522",
"R. c #464428",
"E. c #524B21",
"W. c #5F4E20",
"Q. c #47463A",
"!. c #544A31",
"~. c #59553D",
"^. c #625637",
"/. c #735B2C",
"(. c #4D4A46",
"). c #4A4C4C",
"_. c #454546",
"`. c #58554B",
"'. c #565757",
"]. c #495355",
"[. c #625D54",
"{. c #60564C",
"}. c #5C615A",
"|. c #64634C",
" X c #6D6C55",
".X c #666559",
"XX c #726F56",
"oX c #5A5B68",
"OX c #576769",
"+X c #636364",
"@X c #696A68",
"#X c #726D6A",
"$X c #747364",
"%X c #7B7865",
"&X c #737474",
"*X c #7A7379",
"=X c #6C6F76",
"-X c #895D1C",
";X c #926A24",
":X c #817C45",
">X c #857C6E",
",X c #7A8A7D",
"<X c #888778",
"1X c #938D77",
"2X c #A09E75",
"3X c #7E8D90",
"4X c #898C87",
"5X c #938E8B",
"6X c #969888",
"7X c #969995",
"8X c #8E9493",
"9X c #A0988D",
"0X c #98A299",
"qX c #A1A494",
"wX c #A5A79B",
"eX c #A9AB8B",
"rX c #96A1A7",
"tX c #AAAAA5",
"yX c #AFB1AE",
"uX c #B3B2AE",
"iX c #B7B7A8",
"pX c #B6B8B7",
"aX c #B0ADB1",
"sX c #C1BDB2",
"dX c #C3C3B9",
"fX c #C8C8CA",
"gX c #D4D3CA",
"hX c #DADBD6",
"jX c #D8D6D8",
"kX c #D3CCD1",
"lX c #E5DDDA",
"zX c #DEE1D8",
"xX c #E4E2DD",
"cX c #D1D2E6",
"vX c #E5E4E3",
"bX c #EAE9EA",
"nX c #F0EFED",
"mX c #ECEAF5",
"MX c #EDEDFC",
"NX c #FDFEFD",
"BX c #F6F8F9",
"VX c #EFF0F0",
/* pixels */
"8.' ' _ H D.c.N.P.N.b._ Q ^ ~ C D ] ~ Y a O.y ; y 6 ; ; : s 6 } t y , < 6 Y Y 6 t = { { < X X.OX}.Q.",
"E P Q B 0.G.c.M.N.M.h.j.A z $.` _ D ) x P I 6 { y  .1 < ; ; + t t < ; 1 p p % 8 3 6 s p O <.rX8XOX].",
"D P u y ) Z.F.C.q.l.j._ V.i._ / E x B D / L 4 p w : < < < ; d f { < ; X < p I Q z.G _ p.|.cXcXtX3X].",
"_ B L * e C 4.V.h.B.6.( [ V.a.z Q T u  .7 a e ! ! ^ p <.1 < = > t < < ; = , ` Z.A.6.M $XbXmXfXpX,X..",
"-.' ` I ~ p.z.j.g.C.E x G Q ~ V e i i  . ...: ; p o y 8X+.s Y 6 = X > < < - ' h.V.( <XmXmXhXhXwXl.l.",
"( R E E _ V.j.j.P.l.D D S P Y u p p i f d p 1 > { { - wX Xh Q / ^ s ; , 1 a / k.J.iXMXvXhXmXuXs.z.l.",
"P ( C.q.( ' _ l.P.c.H ] V.k.( P D z L : p 6 y w + y + <XiXu T I k e i i Y P m !.gXmXcXcXjXtX` D Z.j.",
"i T / 6.H ( 6.M.c.j.D P 4.c.b.M.f.j.) Q u 3 , X.i i 3 `.gXQ Q z =.B Q P Q / ~.gXbX7XkXbX4X&.D Z.F.k.",
"f.k.k.6.0.( V.g.6.x ( H 6.c.g.k.g.k.0.C F ( R ` / -.F ( jXXXM ` ~ Q B D 4.XXxXMX4X4XVXqX) H H.G.8.k.",
"F.k.k.k.f.f.j.f.C _ ' _ l.M.b.j.f.H _ F F / / / D ' w.' fXiXh P ~ / 0.f.1XBXxX6X@XhXtXK _ j.j.j.V.C.",
"b.5.c.c.V.` n V.6.H x 0.M.M.b.k.S D [ H A D / F _ [ R g <XzX=.D ) G m 1XnXvX1X@XvXwXD D D B B p.~ L ",
"z.Z ( V./ T P i.T.F Z j.h.c.k.f._ n [ H G / H F j / J q `.VX$Xj V.C qXNXxX2X.XjXqXB j.S P O.&.L ~ w ",
"Z.S.( P & i ~ ) ' ( l.l.j.6.j.S ) C C B [ _ D / D _ K 4 ] xXuXh R.iXBXvX9X|.jXeXF C V.G G z % : p X ",
"G j.u.i.L i Y x / / S l._ n i.D L G G P Q B B ~ ` Q Y a s uXgX XpXNXlX2X|.fXwXD p.A H A u.a.B i z z ",
"[ H F / B N G [ _ B j _ _ n D Q i B a.K I r r Y Y % + , o 4XNXvXNXgXwX.XdXqXB D / M G a.G N a.u.S A ",
"_ f.C.E @.] H D G G =.T H _ k Y 4 i ~ L I Y Y e a 3 : {   &XNXNXhXwX.XaX9Xj h Q V ) Q B ) G A i._ _ ",
"/ D _ q.( F / P l B / P x ) ) k K l P J u a Q h y : = , 6 4XNXfX9X#X7X6XC 0.K r V Q r Q k L ) V H./.",
"S F D / n R D F ' ` ` U I i u 6 a.( L K & e u U / z 4 X.oX&XyX=X8XsX1Xe.G k O.Y i J e ` ^ V V Q N p.",
"H _ F ( n ( / R ` P L a 6 3 - { 8 I P & u =.j V.D.E.P oX=X'..XyXfXsX.X` _ z 9 7 3 a u Q B B z L w L ",
"n 0.F 0.j ( ( x n B Q u p y t 1 a 4 a @.I ~ _ 0.k.t.@X&X].%.Q.,X5XaXkX&X] / K i 4 7 3 u r Q r u L ] ",
"Z 8.( W 0 W / D j x x u s y + ; 3 3 3 7 I ` P ) R.[.@X_.y.Q.[ E.-..XaXfX<Xx ~ i r y 3 $ e L $ u e ' ",
"F ( ( ' n R R F / n Q Y s J r L p J ~ @ 4 o 4 R.+XOX).2.=.D H a.S.h ;.5XfX7XY J z L Y u i L y u k ) ",
"( D D e.F ( D v / D D L a z x / G j / ' -.:.).oXoX).:.:.E v [ ) P S ( K +XpX4XY i L ^ ^ L K u u P ' ",
"6.Z D m n 0.C.H C u.a.Q k R 0.( / / e.c |.gX).'._.2.>.D _ j L e U ) Q T ` Q.wX0X*.u z ! Q L u I I T ",
"D Z S Z F 0.V.H V.k.H / Q j D T z a O.@.Q.aX7X*.1.-.( 0.D % u Y l T Q I >.e a 4X8XU 4 z Q T 4 p J P ",
"S._ 6.0.b 6.j.j.V.n D S.~ - = O : + u (.'._.aX_.=.R x W q % e 4 $ L a $ * J z #..X,Xe L Q e o - : u ",
"[ V.a.S.F A.j.V.i.( / s.] w ; t 7 a 2.oX_.$.#X*Xn F c & 7 3 % e u i I u e Y z u s *.s y &.% O = - u ",
"D A S _ F S.j.0.S D / / D A G Q R 1.oX_.#.2.#.1.4.0.x & I 3 $ B z 3 I # L s } s s : p + y O , > 3 y ",
"D M A _ 6.j.4.6.w.x / [ D n F b R.`.Q.#.,.7 # C v.k.H D / K J / / 8 I u u a | % 3 +.t s  .X 6 , , 6 ",
"/ D / D H z.f.S 0._ / ~ ) D D t.'.2.,.| $ 0 6.F.G.H H 0./ _ ) J 4 e 3 7 u p w : y 6 p t a % . 7 S S ",
"x B D j C f.f.V.G ( ( _ C.l.R.).<.$. .2 K 8.D.Z T.H [ ] R ( / % 4 ] I 3 6 u w 6 y p : 3 J ` 0 / N.P.",
"C C x / j N T.XXQ.%.!./.n.~.`.2.O.7 @ W w.[ / V.D ` ~ x R ` T V j z x I u u 6 6 p y 3 y k F 6.j.F.k.",
"6.S u.C D x ;.>X`. X^.!.~.|.,.$.2 g _ w.D ( T.G ( ' z ` P Q P x B M 7 q G k 6 6 3 3 1 6 ~ C g.v.c.c.",
"C j.f.4.A.V.w.%XG.|.!.`.(.@.T $ % u s - g D G M k g B z P / D 4.f.z.Z l.B.j 8 8 1 ; X % K j.c.5.k.k.",
"V.k.j.V.Z.i.' 4X*XK >.y.T 4 9 -  .} < u N N x L 6 6 ~ e ` / u.h.0.4.4.g.g.D Q K e 6 ; ; X J 6.M.H 6.",
"j.V.V.C C i.~.>X{.U q (.U . ` P e J 4 e B h & 7 % % I U W / j P v D 6.b.H ;.) z I 4 = < ; = 2 4._ _ ",
"H i.H _ v V.1X*X-.J & E R q.b.b.b.F.S._ 0.H / g 4 & q [ n / K a D _ _ 4.h Y Q e y K K 4 3 5 P g.5.f.",
"D M C D ( j %XfXy.@ =.T.m.n.m.x.v.5.g.c.P.J.H.A.G.k.f.l.F P @.a l K P F P U L I t 8 Z m.H.7.6.j.6.6.",
"Q a.C H ( /  XQ.@ ,.1.`.>XH.5.k.j.S f.S h.c.k.c.H.k.j.S S C / _ E.G.' D / q K @.e 0.Y.L.m.n.m.5.N.N.",
"k C j.C D D t.@.%.(.[.Q.C.D.Z D D B / j 4.k.4.j.5.4.6.D j.f.C F 8.q.e.( A.A.Z.b./.U.Y.Y.L.m.5.D.b.v.",
"0 x s./ r.C.F U y.(.$XR.n _ / K x P x x Q B j N S 8.q.6.S f.k.7.7.m W R 4.J.C.D.-X-X;Xn.9./ D 8.Z.l.",
"a ) _ m G.I.v.9.{.q %.$X Xc ! z P L z i L K z x V D 8.5.v.6.8.6.5.m q W 0.A.G.C.I.r.r.W q O.a 3 C 6.",
"/ S.j 0.q.7.I.r.9.0 @ R.|.P L L i I i u i i u Y 9.0.H Z 8.5.S N n m 0 K ( ( q.6.>.' ] ~ u 7 6 3 w z ",
"6.6.Z E.0.Z _ ;.( l L I & u T % w y i e u e u u W 7.n.5.C N H Z n l l g x R n 6.g.S N S A j.H r 6 : ",
"D 0.H n / Q P ] j x # 4 4 3 3 4 u 6 y 6 w w w y d J 9.r.k.f.4.b x x / h D x C S 5.C e l v v.B.k.j.S ",
"w ^ P P Q P / g U _ H k.i._ Q & 3 - , , : 6 y 6 5 5 8 J e.q.D h j P j S i.A G C c x I 7 $ 0 0.j.S S ",
"p + ^ J w i J P I W b.N.M.M.K.S w o - , 6 : 3 - $ a 8   ; : 6 7 c P g H u.S H C z k u e r N A C A u.",
"3 I k J u p p y u.f.N.m.g.Z 8.Z G e 3 6 3 + : ; = = = - - = ; * l J x S S S C C x c g e e i M C S A ",
"u z i g a J G x 4.b.v.x.4.v C C h j e 5 p p 3 8 - = = - - ; + e z k D S 6.H B u % y + 4 y 6 % v x j ",
"j.g.j.c./ j.M.c.j.g.g.c.5.Z H H D G e 5 7 4 6 6 6 , ; - 3 : y a L J D H 8.G z + : + + 3 % y L 6.F C "
};
