/* XPM */
static char *_644052784028[] = {
/* columns rows colors chars-per-pixel */
"50 50 238 2 ",
"   c #120E14",
".  c #1C141A",
"X  c #19171A",
"o  c #0D090F",
"O  c #24191A",
"+  c #1B1B23",
"@  c #221D23",
"#  c #1E2228",
"$  c #1A2636",
"%  c #232325",
"&  c #24232A",
"*  c #2B252B",
"=  c #2B2A2D",
"-  c #282726",
";  c #35292C",
":  c #2B342A",
">  c #353829",
",  c #2D2C33",
"<  c #2C2E39",
"1  c #242731",
"2  c #332D33",
"3  c #332F39",
"4  c #2E3234",
"5  c #2D343A",
"6  c #333234",
"7  c #3B3435",
"8  c #343B35",
"9  c #34333C",
"0  c #3A353B",
"q  c #353A3B",
"w  c #3B3C3C",
"e  c #3A3A34",
"r  c #1F211E",
"t  c #433B3D",
"y  c #473639",
"u  c #57393A",
"i  c #482E2B",
"p  c #6E383A",
"a  c #401F28",
"s  c #3B4538",
"d  c #42443D",
"f  c #46483C",
"g  c #54443B",
"h  c #53583C",
"j  c #6D473A",
"k  c #353643",
"l  c #393642",
"z  c #3B3B43",
"x  c #3C3D4A",
"c  c #373A46",
"v  c #373950",
"b  c #423D43",
"n  c #473C47",
"m  c #563D46",
"M  c #4A394F",
"N  c #3D4446",
"B  c #3D4455",
"V  c #434245",
"C  c #4B4344",
"Z  c #44424B",
"A  c #4B444C",
"S  c #4B4C4B",
"D  c #464C46",
"F  c #534B4C",
"G  c #594649",
"H  c #4D534B",
"J  c #4D5546",
"K  c #52544C",
"L  c #575A4A",
"P  c #454552",
"I  c #4A4553",
"U  c #454A53",
"Y  c #4C4B54",
"T  c #4C4D5A",
"R  c #474858",
"E  c #534C54",
"W  c #5B4C54",
"Q  c #524E5B",
"!  c #564957",
"~  c #4D525C",
"^  c #4C5254",
"/  c #525255",
"(  c #565A54",
")  c #595A54",
"_  c #54535C",
"`  c #5B545B",
"'  c #5B5B5D",
"]  c #595658",
"[  c #654A4A",
"{  c #65554B",
"}  c #634E55",
"|  c #635B5B",
" . c #675858",
".. c #755856",
"X. c #764D48",
"o. c #5B644B",
"O. c #5D6255",
"+. c #5D615C",
"@. c #63684B",
"#. c #686759",
"$. c #79675B",
"%. c #787858",
"&. c #6C7354",
"*. c #4C5365",
"=. c #555562",
"-. c #5B5662",
";. c #5B5A63",
":. c #5C5D6A",
">. c #555768",
",. c #4A506C",
"<. c #645C64",
"1. c #665C68",
"2. c #705B60",
"3. c #5D6266",
"4. c #5A6376",
"5. c #636264",
"6. c #6D6365",
"7. c #64636C",
"8. c #6B646A",
"9. c #6A6A67",
"0. c #7B6D6C",
"q. c #756968",
"w. c #6E7264",
"e. c #797768",
"r. c #6B6B74",
"t. c #6B6C7A",
"y. c #676474",
"u. c #726C74",
"i. c #786C7A",
"p. c #6E717B",
"a. c #737374",
"s. c #7B7374",
"d. c #7B757A",
"f. c #76787A",
"g. c #835953",
"h. c #8A5A4C",
"j. c #8E665A",
"k. c #A4695E",
"l. c #826E66",
"z. c #857769",
"x. c #847C7D",
"c. c #877776",
"v. c #937D77",
"b. c #8F6A6A",
"n. c #AC7667",
"m. c #B0716A",
"M. c #A65F5D",
"N. c #7C8158",
"B. c #7B8364",
"V. c #86885A",
"C. c #8B925E",
"Z. c #878A63",
"A. c #87847A",
"S. c #9C8B7D",
"D. c #94867A",
"F. c #91906B",
"G. c #A4887A",
"H. c #B39978",
"J. c #AEA278",
"K. c #98A172",
"L. c #666A86",
"P. c #777886",
"I. c #797D98",
"U. c #6C728E",
"Y. c #747CA0",
"T. c #867E82",
"R. c #867C87",
"E. c #997B83",
"W. c #7C8284",
"Q. c #7E8699",
"!. c #788AA9",
"~. c #768CB8",
"^. c #748DB4",
"/. c #7B9ACB",
"(. c #748EC5",
"). c #78A2CA",
"_. c #8B8284",
"`. c #888489",
"'. c #948A83",
"]. c #9B8C84",
"[. c #938B8C",
"{. c #958687",
"}. c #9C928C",
"|. c #989387",
" X c #89879A",
".X c #968C94",
"XX c #9C9394",
"oX c #9A969A",
"OX c #A3948B",
"+X c #AB9A8C",
"@X c #A59486",
"#X c #A19694",
"$X c #A59B95",
"%X c #A49A9B",
"&X c #A99B97",
"*X c #AB9588",
"=X c #ABA19B",
"-X c #B5A598",
";X c #B6A68D",
":X c #888CA4",
">X c #9293A9",
",X c #A99FA6",
"<X c #95A3BD",
"1X c #ACA3A2",
"2X c #ABA4A1",
"3X c #B5ACA5",
"4X c #B4ACAA",
"5X c #B1A6A5",
"6X c #BAB2AC",
"7X c #AEADB9",
"8X c #C2B8B4",
"9X c #C2B8AC",
"0X c #869AC5",
"qX c #99A9C8",
"wX c #86A5D5",
"eX c #96ABD6",
"rX c #8AA0C5",
"tX c #A5B3CB",
"yX c #A8B7D6",
"uX c #B3BEDB",
"iX c #B5BCD3",
"pX c #ADB3C8",
"aX c #94AEE3",
"sX c #A8BBE4",
"dX c #B5C1DE",
"fX c #BBC5E3",
"gX c #B8C7E5",
"hX c #B1C6E8",
"jX c #9EC0EE",
"kX c #C4C7D4",
"lX c #C2CBE5",
"zX c #CDD5E9",
"xX c #D4D9EB",
"cX c #D6DEF4",
"vX c #DBE3F9",
"bX c #E5ECFA",
"nX c #ECF2FD",
"mX c #F2F9FD",
/* pixels */
"T I T 7.=.>.=.;.=.;.Q U t.R.p.P.Q.;.U _ ^ >.U.Y.iXbXnXmXnXmXnXbXcXxX&Xc.2.! ` b l V w A `.tXcXnXxXzX",
"x Z Q y.;./ ~ ;.;./ Y =.P.`.r.4.y.7.=.>.~ ,.Y.sXvXbXvXbXbXbXxXxXlX Xm ..0.| ` ` ` n l k B xXbXzXlXfX",
"9 @ x d.8.E ] / ;.Y =.3.y.P.p.y.y._ I -.T >.qXcXnXcXcXcXlXkXkXuXiX>.s.XX#X.X.XR.' ;.=.P 7XmXzXfXdXdX",
"0 0 z ! <.-._ Q ;.E Q _ =.:.:.:.1.` P T _ 3.zXmXmXvXzXfXfXlXuXuXfX7XoX%X4X.X`.x.<.1.Q B kXcXdXuXiXdX",
"U P Q Y T ;.T _ Q Y ~ =.7.r.y.7.~ =.;.` _ Q `.`.W. XiXhXuXiXyXfXlXiX[.1X%X.X`.x.r._ ~ ~ qXgXdXtXtXiX",
"` c ` y._ -.=.~ =.-._ _ 7.r.;._ +._ ' _ Q / 2 & $ !.yXyXyXqXtXtXdXpXoX1X2X{.u.R.P.;.~ ~ qXuXeXyXuXhX",
"/ I ` ;.-.7.=.=.~ =._ =.;.3.;.;.^ >.-./ :.=.= P qXyXeXuXgXtXyXuXgXiXoXoX7X`.T.T.u.7.U *.<XhXyXyXeXyX",
"E A E 8.<.;.Y / _ _ ~ _ _ =.;./ -.=.=._ =.:.P.iXyXeXeXyXgXgXuXvXlXdXoX%XXX.X[.d.u._ *.,.<XtXqX0XrX0X",
"n y t s.;.:.;._ =.=.~ ^ Q =.Y Q Y ~ =.Q Y R gXhXqXeXeX X:XgXvXzXuXpXoX=X%X`._.A.3.^ P *.^.0X~.~.~.~.",
"W 6.| 8.1.R =./ T Y U Q ! Q T ~ -.~ ~ Y Z 4.hXaXeXaXrXy.1.Y.sXuXsXqXoX%X%X.XR.a.t.Q T ,.^.wX(.(.^.~.",
" .W <.u.;._ Z ] W / / / ~ =.Q Y ! ~ U C I 4.wXaX)./.:X0.0.U.yXsXsXeX.X&X,X[. X_.8.V P B ^.wX(.0X/.wX",
"t 6...W -.;./ _ E Y E W Y -.W U R U A ! T ,.eXeX)./.Y.L.y.,./.sXgXtXoX,X5XoX.X_.P.1.>.,.Y./.(.<X~.~.",
"%.$.L t 5.` Q E ;.U M G A ` W F ` Q I M I *.:X>X>X.XR.v.c.` R.:X}.E.#X[.R.u.] ) M A V b E 1.| } F A ",
"Z.%.D.O.Y ` _ ' ` F m b b _  .} G ` Y T _ U m k.M.h.h.n.m.h.g.j X.[ G q..X`.T.q.4.U N l t b t C V A ",
"o.@.w.9./ ` / F A G m u G E ' / n 2 w A I W ..m.m.M.h.k.k.k.m.n.j.j.X.0.%XoXXXR.s.n n } ..G G G u m ",
"w.s o.9.;.3.-./ } [ i u W k x y ; 2 y n G } j.h.g.X.X.g.g...g.X.p X.X.u e..XR.d.7.A b b F 3 / k , , ",
"f s w.9.' 5.#.;.! ..p u y y 9 v 0 @ m u m m b ,.,.k 9 M Q < 4.,.k 0 3 @ [.XX_.`.7.P N R ] N P.*.b z ",
"8 ) d.' ^ 3.U 9.<.X.X.; L Z.z.$.'  .a u [ } a.>X:X`.1.P.R.7.:X:Xp.u.-.A ,XXX{.T.1.P U Z F - - 1 * & ",
"L ) f D V s C D b [ { % ..H.H.j.l.l.C y G i.<.M c 2 7 0 y t c k 0 0 y n $XXXx.x.5.A x X = O o @ .   ",
"{ @.J s s s > >  .n : - j.J.h 2 z.Z.t , b <.` 0 0 z n t * 0 t z t 0 * 1.5X_.d.x.8.U P + ; ; O @ . O ",
"8 J H H s s g } E.m , 7 ..q.7 i i F.] 0 7 M =.3.=.=.1.1.r.1.u.i.s.x.1.8.$XXXT.d.r.U M 1 2 O .   O . ",
"s D s L J f t ..G O i 2 b n u p a u F e y A R I.4.L.L.` A u.` 1.u.x.| q.%Xc.x.s.7.E R l 3 2 X   . . ",
"s J s N.B.#.e.} * * i b l ; m.m...a y y G M E 4.U.>XP.R.c.b ` F <.u.1.q.oX_.c.u.1.Y P k 0 F V % @ + ",
"s J &.s L J F <.k = i M ! i h.%XM.p t ( Y I C 1.v L.R.s.E..XC ' | u.` 1.$X{._.R.5.Y P x A r.`.E * & ",
"s o.^ : : : N 2 y 0 z n V y y X.[ M b W A n ! L.R.I.R.R.c.E.R.y.E 1. .6.%X[.{.d.1.Y U < n t.`.=.3 * ",
"s s s 8 s : X = t ; I 7._ n n [ [ =.E F Z ! ! 4.:X:XrX7X2.2.8Xu.E 8.0  .'.s.| 8.7.A B 4 Z ` r.Y Z b ",
"A.w.e s : - t * % - 0 9 n =.R I ` =.R I E n n y.U.U.>XE.0.l.c.l z E F ] x.0.|  .` _ c q N d.r.Y ~ R ",
"D.s.e - # % * * 2 = 2 b < k P c Y T =.Q ` F E :.,.>.L.E.E.v. .z l 0 E <.x.s.1. . .A N q N ' 5.^ ~ T ",
"q.F 0 & # = * A 6 @ = V 6 9 4 z c x P P A A 1.1.1.1.=.d..X{.! n c Z + 3 <.s.1.6.` l q N s s ^ ^ n c ",
"L d 4 S :     b = % = 2 , 3 # 9 k k k x Z 3 z F b.q.1.a.8.} M P U y.I , 3 b A 7.C q 4 s : 4 ^ B 9 4 ",
"f f S Y + ; y 7 C t X & % < :.t.x 3 k < 0 0 < G R.i.3.Z ] | & Q l z l = , , = z D q 8 : s 4 ( B w 9 ",
": s N / A - X * W t + & U P.L.I.=.2 P n 9 k < 7 5.P.( Y  .K X + 4 0 @ = & 6 N q 5 s # # : s D N q , ",
"s s s H U 9 O y *   l I t.L.4.L.4.# l Y l l 9 / W.f.p.p.f.Z q w X - <   - K #.s 8 J J s - : s 5 N : ",
"s J N B R R z n @ b Z z >.y.4.7.*.< , 0 0 c 9 9 f.f.' ^ W.+.H #.e.) V N - D f o.O.J +.+.+.D s 5 4 : ",
"~ ~ D ~ T >.` w y * 0 c 4.y.3.=.R U U 4 # *.y.N ;.P.' 5 f.A.w.#.@.9.e / +.) ( D N J S s D 4 D ^ D D ",
"w *.3.U c P U & ; 0 z x N P.=.U ~ = 9 Z 1 5 p.9 6 ( Z s a.W.f.3.D f d d ( ( ) H f H ( D J s H +.9.O.",
"X q P n P.P.~ $ C * x I.P >.*.Y B & # 1 N , @ z d w w ( f.f.B.W._.a.3.: 4 s : H K s f h J J J J O.K ",
"r = n x P.P.y.>.9 + 9 p.T R *.:.T # 1 4 k Y F s.d w 6 / p.r.7.p.a.r.5.( ^ ( 9.e.D.D.&.{ @.w.o.O.#.J ",
"N N =.x B E T x k P < t.c x c :.>.k 4 9 # / {.j _.A./ ] 5.9.5.r.9.e.x.A.[.d.[.3Xz.l.S.D.L o.o.( s.e.",
"_ x c , , z , + >.>X1 n & & 1 T T 1 9 4 w F c.j.2XkXXXA.|.4X2X=X5X3X-XXX[.%X1X=Xv...g S.z.g f s ) #.",
"U N P =.< x < = = % + % , , < c P B X 0 A 0.#.z.H.|.A.e.+X-X'.c.|.+XS.D.S.*X+X*X*Xz...{ z.+Xl.g t F ",
"T =.y.P R P.9 , b 0 S z , q + A f.z z @ q.E...G.+Xx.f.$X*X+XS.D.D.+X;X+X@XS.S.S.G.G.l.{ i { D.G.@XS.",
"f._ S 9 < k c 4 1 , z _ , 6 r b = X = S c.[ D.+X+X{.a.&X-X-X*XS.D.].+X-X-X;X@X@XD.D.v...G { g z.G.G.",
"B.@.J : - z T T z + n & a.d.= % , , , 7 <.{ v.G.+Xs.K ].-X*X$X+X].S.].$X+X=X+X+XG.@XD.D.S...{ { 0._.",
"@.h o.f e g 2 = 8 6 = 6 Z l 9 -., c V A 0.#.].}.OXf.S A.-X-X-X;X+X].OX-X=X$X].OX@X].@X].S.e...$.a.9.",
"s > r f #.#.#.5.) +.K / 0 , _ Y D 8 d #.}.|.D.z.D.#.F z.}.D.'.S.D.c.D.{.'.].].OX&X}.OX}.S.].c.0.w.0.",
"$.u { D.K.Z.B.B.o.O.) ( H N 5.) f %.B.F.@XK.N.%.%.&.w.e.c.u.%X_.0.| c.XX}.0.0.&X$X{.}.#X'.=X4X'.C a.",
"H.;X;Xz.%.N.Z.o.@.h f #.#.e.w.L C.K.F.C.C.Z.N.@.&.e.&.@X3X1X4X&X$X}.%X$X#X}.#X5X#XXX5X1X6X4X=X}.G 0.",
"|.|.|.'.A.#.L h J w e ( 5.a.A.B.N.C.C.F.V.V.@.#.e.'.}.}.1X=X1X1X3X8X3X4X4X=X3X=X-X6X6X3X=X=X2X`.D #.",
"e.z.B.B.#.L f f f H ( +.( +.B.Z.%.C.C.Z.N.V.&.6.A.XX$X|.&XXXXX=X$X=X#X3X6X5X9X9X6X3X2X3X3X6X6X'.F q."
};
