/* XPM */
static char *_644052803324[] = {
/* columns rows colors chars-per-pixel */
"50 50 221 2 ",
"   c #0D0603",
".  c #050A02",
"X  c #0C0C03",
"o  c #05090B",
"O  c #0B0D0B",
"+  c #09070A",
"@  c #110E05",
"#  c #130D0B",
"$  c #0C1404",
"%  c #0D1905",
"&  c #06120D",
"*  c #0D130D",
"=  c #06180F",
"-  c #0C1A0D",
";  c #051604",
":  c #131303",
">  c #1B1404",
",  c #151A03",
"<  c #1A1C04",
"1  c #14140C",
"2  c #1A150C",
"3  c #141C0C",
"4  c #1B1C0C",
"5  c #0D0E13",
"6  c #090D18",
"7  c #110F13",
"8  c #051413",
"9  c #0C1413",
"0  c #0D1A14",
"q  c #05161B",
"w  c #0A1919",
"e  c #131512",
"r  c #1A1514",
"t  c #141C14",
"y  c #1A1C14",
"u  c #15151A",
"i  c #141C1A",
"p  c #1B1C1A",
"a  c #221B03",
"s  c #221E0D",
"d  c #291D05",
"f  c #221D12",
"g  c #211D19",
"h  c #291F18",
"j  c #152006",
"k  c #1D2304",
"l  c #15210B",
"z  c #1C230C",
"x  c #1D290D",
"c  c #152215",
"v  c #1C2313",
"b  c #1E2815",
"n  c #15221A",
"m  c #1C231B",
"M  c #1C291B",
"N  c #242304",
"B  c #292402",
"V  c #252B04",
"C  c #2C2C03",
"Z  c #23240C",
"A  c #29260B",
"S  c #252B0C",
"D  c #2B2B0C",
"F  c #332D02",
"G  c #322D0C",
"H  c #3B2D06",
"J  c #2D3203",
"K  c #2D310B",
"L  c #343303",
"P  c #3A3503",
"I  c #363903",
"U  c #3C3A04",
"Y  c #34330B",
"T  c #3A350C",
"R  c #35390C",
"E  c #3C3B0C",
"W  c #232413",
"Q  c #2A2512",
"!  c #232A14",
"~  c #2B2C13",
"^  c #22231B",
"/  c #2A251A",
"(  c #242B1A",
")  c #2C2B1B",
"_  c #322E12",
"`  c #382F12",
"'  c #322D1C",
"]  c #263014",
"[  c #2D3212",
"{  c #25311B",
"}  c #2C331B",
"|  c #333413",
" . c #3A3512",
".. c #353A13",
"X. c #3B3B14",
"o. c #33341A",
"O. c #39351B",
"+. c #353A1A",
"@. c #3C3C1C",
"#. c #141F21",
"$. c #1F1C22",
"%. c #1F2B21",
"&. c #232521",
"*. c #2C2523",
"=. c #242A23",
"-. c #2D2B24",
";. c #2C2E2A",
":. c #262C28",
">. c #332D23",
",. c #302625",
"<. c #2B3423",
"1. c #2A312B",
"2. c #243221",
"3. c #333323",
"4. c #3A3423",
"5. c #3B3B24",
"6. c #33332B",
"7. c #3B342B",
"8. c #3B3B2D",
"9. c #343231",
"0. c #393532",
"q. c #3B3B32",
"w. c #453706",
"e. c #423C04",
"r. c #423609",
"t. c #413D0C",
"y. c #4A3E0B",
"u. c #483608",
"i. c #433613",
"p. c #423D13",
"a. c #423C1B",
"s. c #4C3D14",
"d. c #453D2A",
"f. c #423A23",
"g. c #463E32",
"h. c #3E4108",
"j. c #3C4116",
"k. c #3D421B",
"l. c #3C4224",
"z. c #3F403A",
"x. c #454204",
"c. c #4C4606",
"v. c #44420C",
"b. c #4A450D",
"n. c #4C4A0C",
"m. c #44480D",
"M. c #554D03",
"N. c #50450F",
"B. c #534C0D",
"V. c #594E09",
"C. c #5A450E",
"Z. c #5E5105",
"A. c #54520C",
"S. c #5B510C",
"D. c #444314",
"F. c #4A4413",
"G. c #4C4A13",
"H. c #43421B",
"J. c #4A441B",
"K. c #454A1A",
"L. c #4C4B1B",
"P. c #524D13",
"I. c #5D4A14",
"U. c #52451D",
"Y. c #5A471E",
"T. c #514C1B",
"R. c #564416",
"E. c #4F5016",
"W. c #545215",
"Q. c #595314",
"!. c #54531A",
"~. c #5D541A",
"^. c #5A5916",
"/. c #61530C",
"(. c #614C15",
"). c #64521B",
"_. c #454322",
"`. c #4B4722",
"'. c #4C4B23",
"]. c #484728",
"[. c #544626",
"{. c #5C4D22",
"}. c #4F532C",
"|. c #4E5021",
" X c #595121",
".X c #5B5425",
"XX c #4B4332",
"oX c #484638",
"OX c #544638",
"+X c #655B29",
"@X c #6A5926",
"#X c #715B21",
"$X c #776429",
"%X c #686032",
"&X c #79663B",
"*X c #4A4941",
"=X c #5A5646",
"-X c #5F5755",
";X c #61554D",
":X c #635855",
">X c #67644A",
",X c #7B755F",
"<X c #66675F",
"1X c #756860",
"2X c #7A726D",
"3X c #7D7872",
"4X c #847B76",
"5X c #8A867A",
"6X c #91907E",
"7X c #988A86",
"8X c #8F9082",
"9X c #9A9494",
"0X c #A79C99",
"qX c #ABA09E",
"wX c #BBB2AB",
"eX c #AAA7A0",
"rX c #C7BCBA",
"tX c #D1CABE",
"yX c #DFDBD0",
"uX c #E0DDCE",
"iX c #E1D5D5",
/* pixels */
"J ..~ < : Z a.a.`.J.P.n.U U H.5.[ ] { ] 2.%.%.:.1.1.;.:.%.#.#.q = w q q q q ; S j.E.j.D.O.l.) $ - = ",
"....+.5.Q a F p.T D.!.v.L L  . .[ ] { b n c M m =.^ v c u =.n n = = 8 q q 0 % S k.K.E Y | ] } 3 , l ",
"..@.| N N  .`.D.G.G.G.F L X.Y A ~ W v c =.M 1.M <X5X8X6X=X( <.2.2.M 0 8 = - % K K.L.K.G | ~ +.] R K.",
"o.~ | a.a.E E e.n.!.W.P T p. . .k < Z v m p =.z.eXyXuXtX6X} <.2.] M M c c l z D @.H.J.| ..! +.K E n.",
"/ Q _ E E U I I m.^.G.U r.T G.G.D.D...[ W ! -.2X9XrXrXwX3X3.6.( b ! ( ( ( ( [ K Y G G _ ~ Z S D E G.",
"Q A Y U v.v.E E G.n.U L P P P.P.n.D.D.H.+.3.^ 3X0X0X7X4X:X3.6.-.o.} { [ [ ..H.j.a.p. . .Y [ +.k.F.D.",
"p.T.T.v.h.x.E j.j.E X. .t.r.B.c.x.m.X.@.o.3.) 4XrX0X7X7X;X,.7.o.[ Y K Y j.D.!.K.D.D.p.Y D ..X.k.K.t.",
"b.G.G.m.G.G...X.D.Y  .T t.G.^.B.b.h.E O.4.7.^ -XiX4X:X1Xg.7.' 3.~ J L I x.n.W.x.e.v.D.Y Y ......X.D.",
"P.P.r.D.F.X.| D | `.X.L P c.S.n.G.p.| O.6.;.*X9X:X4X:X;Xh ,.4.' |  . .R e.B.^.x.v.v.R j...A V K ....",
"B.Q.E C Y Y D K X.@.X.X.G.B.c.v.p.a.O.) 6.9.9.0.  >.:Xg.h d f f.5. .E v.n.n.A.x.x.I J j.R | K k N N ",
"M.x.G.J.Y C V V Y | ..p.G.D.L p.X.G D Z W 1 p 7 g # # 9.-.r g 2 ~  .J.m.A.A.A.A.m.m.I h...j.R ] , k ",
"x.x.t.X.X.Y C D | | Y Y p.X.` _ a.B < W y 1 p p g r # ,.r e e r : | H.v.A.n.^.W.I h.J R j.R [ +.+.+.",
"I h.X.p.| D ..@...@.Y Y Y ..@._ ~ ~ 3.8.1.1 e p r e g ^ ;.p e 1 : ~ | L D.T E L Y J ......j.+.k.j.X.",
"L Y ..'.@.D X...Y ..Y ..| ~ 5.o./ >.>.6.;.9 o 9 y g 1 -.q.+ O O m 3.o._ J.X. .Z S S [ x x K ] | R E ",
"V R C J @.@.| G [ D D [ ) ) ) / f >.0.p e O 5 t r ^ 2 e 1 O O & $ v ~ a N _ ~ Q W ] ] k [ [ S [ | R ",
"X.X.X.E | _ D | O.....D ! W f / # 1 p O i O O * 1 1 r 1 1 @ * 1 X . : : : Z 4 3.q.~ z j [ [ S ! ] S ",
"T H T a.@.G O. .G _ | _ 2 f.OXd.@ . e m :.i . . 1 1 # ^ e : : 5.'...V : X X @ / q.oX3.} W ~ +.S W z ",
"i. . .T G d ` ` | | A G Q d.g.O.@ y %.m -.m $ r p ^ e r @ @ N J.|.R ..+.+.K ! 4 W oX5.=X, 4 ! < b c ",
"p. . .` ` F G C G C | A i.d.;Xg.g.f 2 y 2 2 > X *.>.p r 1 @ ! }.D.V R k.k.+.l.b ! / b *X4 y ) v 4 y ",
" .F T G i. .T Y G  . .| ` 1X5X=Xd.' Q ' ) ) f 2 X e 7 r y X W ].k.J ....V k +.l ! v ( <.( b Q ! v ^ ",
"E E p.T H F G i.T F Y ..| >X>X]._ O.O.4.' 4.) 2 6.*.$.5 7   1 3.S S K ..V ! } b ( ! v v } } x z y v ",
"L L T L T T p.'.p.R _.X.k.D ) o.O._ ~ o./ ' >.4 g e $.7 u r $ ! Q ~ ] } W ] Z < 3 b b v b ] } b b ^ ",
"..X.T E r.P P t.R K.j.Y | o.4 Z 4 c 1 c =.e 1 v p 7 u u r 1 : < ! v Z ! z v z x 3 l - l ] } { % 0 t ",
" .H.a.D.D.P b.G.G.h.I Y k.X., $ $ $ $ t ^ 3 t t ^ 5 7 p e X @ , 4 1 ! ( c e c ( l l - l l 2.3 0 - 9 ",
"R E E E p.P F.p.E X.X.J K @.D k k x z v ( $ 4 3 e 1 + u 7 + 2 4 ! } < ! m =.v M c M c c t ( i 9 9 9 ",
"R E L U D.E s.t.p.D.Y K ..R K @.K | [ o.~ ~ z : . # 5 + 7 -.) < ] 3.$ ( &.^ =.n - c n n c n u e 0 t ",
"X.| Y L E t.v.t.E E Y Y | | Y G ..Y O._.~ @.' ' W 2 1 # r ^ ! O.} [ z 4 e p p t c M n n t c e . : z ",
"X.Y Y L L P E G.E v.R T F Y a.T T T p.a.` O.G 5.' f # @ -.( Z o.Z < ~ W f y m y 0 c t c c v ^ 4 A X.",
"R L L L F L L D.p.L B L J.T.{.{.r.T r.T T  .d _ ' s #   >./ ( ! S k A [ Q < W p 0 n n c 3 x o.| T G.",
"E R L Y L L C P E R C T %X%X.X+X X'.J.a.f.a._ XX' 2 r # 0.g W o.] K D V < ~ W 4 c n n 0 3 z | v.x.P.",
"Y E v.h.U E U I p.J.D.E T. X~.+X`.@.o.[ ~ Z ~ oX) r r # 0.) s B J J E C C L.~ 3 i 9 w 0 t x Y G.c.N.",
"N T X.v.v.G.G.t.T.t.t.F F y.F.P k < , 4 < W ) 8.f 2 g # ^ f < @.'.K.L.m.G.J.X.v t 0 n & - , K J.b.c.",
"G a.J.m.x.x.U P F.U.D.P F B P F A : , < s ) ) Q f r h 2 h Q Q ..l.| R V G.E ..5.2.%.n = = ; % k D.y.",
"o.@.D.D.h.J I T t.r.r.F.G.P.R.G.D...@...A o.a ' o.2 2 r f 4._ ~ Z A j.h.L.Y G | ! c b e 3 % . k t.t.",
"S ..R J J I J L Y P E x.B.~.Q.~.E.E.!.L.L.J.C f.i.' ' f >.f.o.D s A | G Y G A o.W < z ~ A ` i.F F.c.",
"z [ ..J J R R J Y R P F P Q.B.B.c.m.U E J.T X.a.Q g.4.f 7./ _ A _ O.| _ ` _ N N A d a i.{.Y.R.s.w.e.",
"4 W +.@.R J C Y C T F F F B.I.e.v.D.Y T T G d.4.Q g.h Q / ,._ Y  .`._._.a.a.p.r.r.u.(.).(.(.s.(.c.V.",
"4 , A @...R .. .T T L F P x.v.U G Y `  .A Q 4.>.h f.s s ,.>.A D.L D.Y ` G a.U.Y.I.$X$X#X#X(.u.u.y.n.",
"4 < D X.T F.{.s.s.p.s.T Y Y G Y D D ~ Q A ' 7.>.a / ` > h f B p.v.D.F D Q d.[.R.y.).#X&X[.d Q ' D ..",
"Z S a.p.F r.{.{.{.i.F.T ..@.A ] S Q Q W A @ =.y > ` O.>   > i.e.U P B Z Q O.f.J.N.N.y.H d A Q 2 : x ",
"k ..X.L y.y.r.s.s.H p.N | | Z ! x b ! v ( X     W ~ _.A   > T U r.H G A Z ~ | R T P e.E D.Y V [ j j ",
"z +.j.j.D.E T T ` T F C V : , W b l e t m e 6 1 4 S o.Z > > E U H F _ A A ~ K J E D.p.C C E K.}.| [ ",
"l b } +.] ~ ~ [ D Y D L C L N k 4 0 i i i 9 6 6 y 2 z : @ 1 @.H.G G G D Y R L J E Y D B k N V K.K.m.",
"n n c ( b b ~ ( ~ A J D.E..XL.|.} c - & w u 6 6 p e 1 1 # 1 Q ~ Z Z V J I h.U E Y D A Q a k k J U I ",
"&.t t ( b M c z k S K E.!.n.B.D.j.S x $ e * e 9 0 9 e 9 6 e * X 3 b S V I U U E G | ) ! z Q ] ..J I ",
"4 y 4 x Z z N Z N ..E.R.n.U P C I V [ z 3 * * 9 * * 9 o o 9 9 e i ^ S C U h.U L G Z 4 x z 3 j S V J ",
"N L Y J L F L p.p.P G.c.b.c.L t.R F Y Z 4 1 3 9 * i e 9 9 0 - 0 t ! S C j.D.X.[ k % - % l l 3 , K L ",
"m.!.Q.n.Q.N.y.G.I.P.B.x.b.b.U R R Y O.) 4 y 1 t e p 0 0 t - 0 - 4 ( [ K Y K K S x 3 x l l l W S L.G.",
"B.S.M.M.S.B.B.N.c.e.B.b.P F V D D Z Z ( z : 3 1 e y p i t n n v z ] ..| D K K ..| +.[ S x x k R j.U ",
"M.M.Z.Z./.V.c.c.x.e.x.c.r.G N k ~ Z z ~ W W ! e e u p u p y m c x ] | Y Z ~ D [ D ..Y K S S S k.G.b."
};
